<svg xmlns="http://www.w3.org/2000/svg" width="403.999" height="404.408" viewBox="0 0 403.999 404.408"><defs><style>.a{fill:#374658;}.b{fill:#8bb5e9;}.c{fill:#fcd3c4;}.d{fill:#6b98dd;}.e{fill:#ffc7b5;}.f{fill:#ed667d;}.g{fill:#ea4867;}.h{fill:#4fd79c;}.i{fill:#1fc091;}.j{fill:#53677d;}</style></defs><g transform="translate(-0.75 -0.631)"><path class="a" d="M102.057,4.133A72.607,72.607,0,0,0,29.294,76.6v87.212H174.829V76.6A72.616,72.616,0,0,0,102.057,4.133Z" transform="translate(219.451 26.924)"/><path class="b" d="M60.243,102.295a81.668,81.668,0,0,0,12.841,38.888c9.557,15.943,9.557,23.823,6.568,30.521A228.231,228.231,0,0,1,60.33,205.588l-.061,19.4h102.06V205.553a228.223,228.223,0,0,1-19.322-33.884c-2.971-6.7-3.006-14.579,6.568-30.522a82.929,82.929,0,0,0,12.763-37.359V224.954H194.57V70.3a19.548,19.548,0,0,0-9.948-17.011L132.8,24.049H89.878L38.036,53.337a19.548,19.548,0,0,0-9.948,17.011V225H60.234Z" transform="translate(210.179 180.041)"/><rect class="c" width="32.242" height="106.647" transform="translate(372.508 298.348)"/><rect class="c" width="32.242" height="106.647" transform="translate(238.206 298.348)"/><path class="d" d="M31.786,30.955V51.4l2.893-20.443Z" transform="translate(238.61 233.136)"/><path class="d" d="M46.1,30.955V51.4L43.206,30.955Z" transform="translate(326.408 233.136)"/><path class="c" d="M56.389,26.754A40.9,40.9,0,0,1,35.2,20.742v29.34a21.466,21.466,0,1,0,42.933,0l0-29.54a40.93,40.93,0,0,1-21.564,6.212Z" transform="translate(264.849 153.079)"/><path class="e" d="M56.389,26.754A40.9,40.9,0,0,1,35.2,20.742V38.118a56.473,56.473,0,0,0,21.19,4.127h.174a56.542,56.542,0,0,0,21.564-4.257V20.542a40.93,40.93,0,0,1-21.564,6.212Z" transform="translate(264.849 153.079)"/><path class="f" d="M182.315,43.435,122.176,21.854H78.857L17.562,43.488A25.2,25.2,0,0,0,.75,67.189V241.821H199.005V67.093A25.2,25.2,0,0,0,182.315,43.435Z" transform="translate(0 163.166)"/><path class="c" d="M31.128,24.874a41.321,41.321,0,0,1-21.39-6.082V46.047a21.66,21.66,0,0,0,43.319,0V18.592a41.243,41.243,0,0,1-21.72,6.264Z" transform="translate(69.101 138.087)"/><path class="e" d="M31.128,24.858a41.321,41.321,0,0,1-21.39-6.082V36.318a57.029,57.029,0,0,0,21.39,4.162h.182a56.976,56.976,0,0,0,21.726-4.3l-.006-17.582a41.243,41.243,0,0,1-21.72,6.264Z" transform="translate(69.101 138.102)"/><rect class="c" width="39.053" height="105.466" transform="translate(0.75 299.53)"/><rect class="c" width="39.053" height="105.466" transform="translate(159.952 299.53)"/><path class="g" d="M8.138,30.783H5.245v51.3Z" transform="translate(34.558 231.813)"/><path class="g" d="M18.741,30.783h2.893v51.3Z" transform="translate(138.318 231.813)"/><path class="g" d="M83.352,231.081V56.345a25.2,25.2,0,0,0-16.69-23.658l-26.3-9.435c.269.582.469,1.138.782,1.738a52.059,52.059,0,0,0,13.64,15.543c-7.88-1.738-15.7-2.989-16.733,6.169a22.746,22.746,0,0,0,9.557,22.963A24.145,24.145,0,0,0,55.428,70.9,31.13,31.13,0,0,0,71.067,91.941V109.23c0,.208.052.408.061.617h-.061L27.8,125.381A18.1,18.1,0,0,0,15.793,142.4v88.68Z" transform="translate(115.653 173.914)"/><path class="h" d="M28.76,47.927,72.027,32.393h31.147l44.1,15.569a18.106,18.106,0,0,1,12.1,17.055V160.8H16.753V64.947A18.089,18.089,0,0,1,28.76,47.927Z" transform="translate(123.034 244.191)"/><path class="c" d="M38.9,34.557a29.626,29.626,0,0,0,15.378-4.344V49.831a15.587,15.587,0,0,1-31.164,0V30.048a29.688,29.688,0,0,0,15.639,4.509Z" transform="translate(171.946 226.163)"/><path class="e" d="M38.894,34.557a29.626,29.626,0,0,0,15.378-4.344V42.837a40.956,40.956,0,0,1-15.378,3h-.139a41.156,41.156,0,0,1-15.639-3.093V30.048a29.688,29.688,0,0,0,15.639,4.509Z" transform="translate(171.953 226.163)"/><rect class="c" width="28.098" height="46.021" transform="translate(282.411 405.004) rotate(180)"/><rect class="c" width="28.098" height="46.021" transform="translate(167.884 405.004) rotate(180)"/><path class="i" d="M29.7,38.817h2.085V75.733Z" transform="translate(222.549 293.58)"/><path class="i" d="M22.063,38.817H19.987V75.733Z" transform="translate(147.897 293.58)"/><path class="c" d="M39.917,31.408C54.93,16.56,56.424,9.757,56.424,9.757a45.839,45.839,0,0,0,22.85,25.986,135.31,135.31,0,0,0,39.462,13.832V69.558a42.913,42.913,0,0,1-42.928,42.919h-.165A42.913,42.913,0,0,1,32.723,69.549V49.575a28.289,28.289,0,0,1,7.194-18.167Z" transform="translate(245.814 70.162)"/><path class="e" d="M140.141,20.832c-1.46-12.728-12.528-10.956-23.675-8.567-.243.052-1.043.148-1.555.209V45.758a41.276,41.276,0,0,1-.938,8.688,38.141,38.141,0,0,0,12.676-1.738C135.571,49.268,141.74,34.707,140.141,20.832ZM30.01,12.474c-.513-.061-1.3-.156-1.546-.209C17.308,9.876,6.248,8.1,4.788,20.832c-1.6,13.9,4.57,28.436,13.484,31.92A40.052,40.052,0,0,0,30.949,54.49,41.85,41.85,0,0,1,30.01,45.8Z" transform="translate(29.107 76.411)"/><path class="c" d="M130.521,2.386a22.98,22.98,0,0,1-19.053,8.254C98.436,8.033,88.723.631,63.093.631,44.074.631,11.563,4.462,5.551,33.646c-7.124,34.64,23.4,55.022,23.4,55.022v33.5a43.658,43.658,0,0,0,43.91,43.4h.182a43.658,43.658,0,0,0,43.91-43.4V88.677a72.876,72.876,0,0,0,19.305-21.607,54.735,54.735,0,0,0,6.021-26.351A60.287,60.287,0,0,0,130.521,2.386Z" transform="translate(28.622 0)"/><path class="a" d="M116.934,88.669s-5.213-29.27-12.763-23.892a39.653,39.653,0,0,1-34.023,9A64.935,64.935,0,0,1,44.909,64.95a65.4,65.4,0,0,1-9.739,16.8A60.607,60.607,0,0,1,28.932,88.7S-1.59,68.287,5.56,33.647C11.573,4.455,44.084.632,63.1.632c25.63,0,35.378,7.411,48.376,10.009a22.963,22.963,0,0,0,19.053-8.254,60.3,60.3,0,0,1,11.755,38.341,54.683,54.683,0,0,1-6.021,26.342,72.877,72.877,0,0,1-19.331,21.6Z" transform="translate(28.639 0.008)"/><path class="e" d="M19.558,31.669c1.051-9.157,9.01-7.889,17.037-6.169.174,0,.747.1,1.112.148V49.6a29.9,29.9,0,0,0,.678,6.273,27.506,27.506,0,0,1-9.123-1.242A22.589,22.589,0,0,1,19.558,31.669Zm79.236-6.021a6.8,6.8,0,0,0,1.112-.148c8.028-1.738,15.986-2.989,17.037,6.169a22.589,22.589,0,0,1-9.7,22.963,28.81,28.81,0,0,1-9.123,1.242,29.34,29.34,0,0,0,.678-6.273Z" transform="translate(141.637 181.77)"/><path class="c" d="M27.59,18.391A16.508,16.508,0,0,0,41.3,24.325a111.991,111.991,0,0,1,34.8-7.2c13.684,0,37.072,2.763,41.4,23.771a40.435,40.435,0,0,1-16.838,39.583v24.1a31.408,31.408,0,0,1-31.59,31.217h-.13a31.408,31.408,0,0,1-31.59-31.217v-24.1a52.494,52.494,0,0,1-13.9-15.543A39.314,39.314,0,0,1,19.11,45.976a43.38,43.38,0,0,1,8.48-27.585Z" transform="translate(140.877 126.793)"/><path class="j" d="M37.356,80.477s3.727-21.06,9.183-17.194a28.541,28.541,0,0,0,24.475,6.481,46.812,46.812,0,0,0,18.158-6.351A47.029,47.029,0,0,0,96.184,75.5a43.1,43.1,0,0,0,4.483,4.978,40.435,40.435,0,0,0,16.812-39.583c-4.344-21.008-27.715-23.771-41.4-23.771a111.991,111.991,0,0,0-34.8,7.2,16.508,16.508,0,0,1-13.71-5.934,43.38,43.38,0,0,0-8.454,27.585,39.314,39.314,0,0,0,4.344,18.958,52.494,52.494,0,0,0,13.9,15.543Z" transform="translate(140.875 126.793)"/></g></svg>