<svg xmlns="http://www.w3.org/2000/svg" width="523.199" height="464.092" viewBox="0 0 523.199 464.092"><defs><style>.a{fill:#f29100;}</style></defs><g transform="translate(-9.058 -36.954)"><path class="a" d="M470.8,318.385l-42.085-9.542v-17.5a83.437,83.437,0,0,0,48.171-59.55,28.2,28.2,0,0,0,16.4-47.849v-64.7A73,73,0,0,0,420.369,46.33v.216a26.187,26.187,0,0,0-20.212-9.592h-.4a101.318,101.318,0,0,0-71.887,30.077,103.948,103.948,0,0,0-30.92,74.025v43.232a28.142,28.142,0,0,0-4.2,33.422A87.3,87.3,0,0,0,270,214.828a84.622,84.622,0,0,0-40.169,10.47V214.809a73.5,73.5,0,0,0-51.587-70.393l-3.184,10.1a62.946,62.946,0,0,1,44.178,60.289v17.347a87.578,87.578,0,0,0-33.924,57.966A70.768,70.768,0,0,1,75.584,231.037V217.519A60.3,60.3,0,0,1,109.956,163.2l.592-.272a70.9,70.9,0,0,0,41.108-64.218V89.644H141.062v9.063a60.271,60.271,0,0,1-34.328,54.306l-.628.289a70.921,70.921,0,0,0-41.115,64.217v82.523a112.541,112.541,0,0,0,4.986,33.138,70.985,70.985,0,0,0-38.114,33.758,53.9,53.9,0,0,1,8.583-76.7,31.284,31.284,0,0,0,12.141-24.777v-108.5A93.636,93.636,0,0,1,212.35,90.229a95.093,95.093,0,0,1,28.44,67.924v45.986h10.594V158.153a105.616,105.616,0,0,0-31.572-75.445A104.359,104.359,0,0,0,41.993,156.968v108.5a20.748,20.748,0,0,1-8.066,16.426,64.516,64.516,0,0,0-6.611,95.869,70.742,70.742,0,0,0-3.5,22.05V501.045h129.95V490.452H34.405v-90.64a60.571,60.571,0,0,1,47.189-59.084l45.493-10.311V310.109a81.877,81.877,0,0,0,39.2-.171v20.478l18.206,4.128v25.4a40.52,40.52,0,0,0,40.475,40.475h1.472V389.823h-1.472a29.915,29.915,0,0,1-29.881-29.881V302.005c0-41.923,33.644-76.277,75-76.585a75.571,75.571,0,0,1,76.145,75.569v58.953a29.915,29.915,0,0,1-29.881,29.881v10.594a40.52,40.52,0,0,0,40.475-40.475V321l5.68-1.29v48.248a7.108,7.108,0,0,0,12.734,4.343l20.374-28.365,20.265,28.219.11.148a7.108,7.108,0,0,0,12.733-4.344V319.7l39.742,9.012a67.942,67.942,0,0,1,53.206,66.616v95.12h-45.02V401.936H466.05v88.516H380.924v10.594H532.258V395.332A78.89,78.89,0,0,0,470.8,318.385ZM88.82,288.578c.295.294.6.569.9.859v10.317a112.6,112.6,0,0,0,3.421,27.5L80.137,330.2a101.977,101.977,0,0,1-4.555-30.154V271.2A81.8,81.8,0,0,0,88.82,288.578Zm27.674,33.38-13.018,2.95a101.913,101.913,0,0,1-3.159-25.154v-1.623a80.646,80.646,0,0,0,16.177,8.62v15.207Zm60.383,0V306.5a80.839,80.839,0,0,0,7.612-3.572v20.761ZM478.358,220.685c.124-1.872.21-3.751.21-5.644v-2.208a22.646,22.646,0,0,0,12.225-10.858,17.568,17.568,0,0,1-12.435,18.71Zm4.336-101.434v72.462a11.923,11.923,0,0,1-4.126,9.015v-5.909a43.934,43.934,0,0,0-7.639-24.811,33.381,33.381,0,0,1-5.793-18.824V140.21A30.133,30.133,0,0,0,435.069,110.1l-12.19-.09a61.309,61.309,0,0,0,3.452-20.366V63.163a26.111,26.111,0,0,0-.7-6A62.4,62.4,0,0,1,482.694,119.252ZM307.536,141.057a93.419,93.419,0,0,1,27.808-66.524,90.8,90.8,0,0,1,64.422-26.985h.378a15.642,15.642,0,0,1,15.593,15.615V89.647a51.151,51.151,0,0,1-51.187,51.188,52.567,52.567,0,0,0-52.565,52.554v6.4a14.187,14.187,0,0,1-4.449-10.353Zm-7.649,60.124a24.688,24.688,0,0,0,12.1,11.078v2.782c0,1.887.069,3.767.195,5.639a17.65,17.65,0,0,1-12.515-16.863A17.459,17.459,0,0,1,299.887,201.182Zm25.268,33.071a72.627,72.627,0,0,1-2.576-19.21V193.389a41.973,41.973,0,0,1,41.971-41.961,61.533,61.533,0,0,0,53.485-30.857l16.993.125a19.536,19.536,0,0,1,19.513,19.513v10.975a43.993,43.993,0,0,0,7.634,24.791,33.366,33.366,0,0,1,5.8,18.844v20.223A72.656,72.656,0,0,1,352.419,273.75a85.761,85.761,0,0,0-21.067-33.914Q328.371,236.876,325.155,234.252Zm31.663,75.883V300.99a87.581,87.581,0,0,0-.907-12.551q3.219,1.729,6.585,3.172v17.233Zm16.274,46.99V323.954l15.249,11.94Zm22.514-29L373.088,310.5v-15.16a83.736,83.736,0,0,0,45.033-.186V310.5Zm22.515,29-15.248-21.233,15.248-11.94Z" transform="translate(0 0)"/><path class="a" d="M279.178,325.132a5.083,5.083,0,0,0,5.084-5.083v-3.493a5.083,5.083,0,1,0-10.167,0v3.493A5.083,5.083,0,0,0,279.178,325.132Zm-42.048,0a5.083,5.083,0,0,0,5.084-5.083v-3.493a5.084,5.084,0,0,0-5.084-5.084h0a5.084,5.084,0,0,0-5.084,5.084v3.493a5.083,5.083,0,0,0,5.084,5.083Zm44.655,19.285-9.556-4.57a15.9,15.9,0,0,1-28.695,0l-9.561,4.563a26.491,26.491,0,0,0,47.812,0Z" transform="translate(13.234 16.292)"/><rect class="a" width="26.726" height="10.593" transform="matrix(-0.707, -0.707, 0.707, -0.707, 225.413, 301.348)"/><rect class="a" width="26.726" height="10.593" transform="matrix(0.707, 0.707, -0.707, 0.707, 225.396, 263.558)"/><path class="a" d="M362.212,451.272A58.377,58.377,0,0,0,316.5,394.038L287.1,387.376v-8.222c24.114-9.66,42.172-32.651,45.423-60.867a18.843,18.843,0,0,0-7.23-17.045c-5.415-4.144-14.736-13.051-16.309-26.141a12.849,12.849,0,0,0-8.289-10.618l-.5-.184a12.7,12.7,0,0,0-14.478,4.122c-19.469,25.066-56.819,32.467-77.352,34.648a18.818,18.818,0,0,0-16.411,22.637,75.749,75.749,0,0,0,24.679,41.646,70.508,70.508,0,0,0,19.525,11.774v8.249l-29.4,6.662a58.378,58.378,0,0,0-45.712,57.233V487.6h201.16V451.272Zm-159.9-127.787a8.224,8.224,0,0,1,7.174-9.879c22.2-2.36,62.723-10.523,84.6-38.685a2.128,2.128,0,0,1,1.683-.818,2.213,2.213,0,0,1,.767.138l.5.184a2.308,2.308,0,0,1,1.434,1.941h0c2.036,16.949,13.649,28.132,20.389,33.29A8.2,8.2,0,0,1,322,317.074c-3.706,32.158-29.66,56.408-60.369,56.408C233.022,373.481,208.63,352.923,202.316,323.484Zm59.317,60.591a68.312,68.312,0,0,0,14.877-1.655v6.9a22.746,22.746,0,0,1-29.757,0v-6.9A68.1,68.1,0,0,0,261.633,384.075Zm-21.746,13.318a33.367,33.367,0,0,0,43.49,0l18.649,4.227v30.517H222.71V401.287Zm-30.779,6.977,3.011-.683v39.042h100.5V404.02l1.538.349a48.726,48.726,0,0,1,10.271,3.571v69.066H199.758v-69.5A48.976,48.976,0,0,1,209.107,404.37Zm-37.461,46.9a47.862,47.862,0,0,1,17.518-37.2v62.934H171.646Zm179.972,25.736h-16.6V414.86a47.863,47.863,0,0,1,16.6,36.412v25.736Z" transform="translate(9.021 13.445)"/><g transform="translate(55.983 203.671)"><path class="a" d="M140.047,253.98a10.632,10.632,0,0,1-9.55-6.023l-9.561,4.563a21.176,21.176,0,0,0,38.219,0l-9.556-4.569A10.645,10.645,0,0,1,140.047,253.98Z" transform="translate(-49.343 -191.149)"/><rect class="a" width="119.386" height="10.593" transform="translate(0 167.37)"/><path class="a" d="M180,204.924a5.865,5.865,0,0,1,5.858,5.858h10.593a16.452,16.452,0,0,0-32.9,0h10.593A5.865,5.865,0,0,1,180,204.924ZM87.6,210.783H98.2a5.858,5.858,0,1,1,11.716,0h10.593a16.452,16.452,0,1,0-32.9,0Z" transform="translate(-51.321 -194.331)"/></g><g transform="translate(341.192 190.044)"><path class="a" d="M377.008,253.153a21.694,21.694,0,0,0,19.472-12.278l-9.556-4.57a10.984,10.984,0,0,1-19.826,0l-9.561,4.563A21.674,21.674,0,0,0,377.008,253.153Zm37.971-61.093a5.864,5.864,0,0,1,5.858,5.858h10.593a16.452,16.452,0,0,0-32.9,0h10.594A5.864,5.864,0,0,1,414.979,192.06Zm-75.942,0a5.864,5.864,0,0,1,5.857,5.858h10.594a16.452,16.452,0,0,0-32.9,0h10.594A5.865,5.865,0,0,1,339.038,192.06Z" transform="translate(-322.585 -181.467)"/><rect class="a" width="10.593" height="108.714" transform="translate(49.117 179.728)"/></g></g></svg>