<svg xmlns="http://www.w3.org/2000/svg" width="201.16" height="286.219" viewBox="0 0 201.16 286.219"><defs><style>.a{fill:#f29100;}</style></defs><g transform="translate(-170.074 -214.827)"><path class="a" d="M292.745,217.711A87.3,87.3,0,0,0,270,214.828a84.622,84.622,0,0,0-40.169,10.47c-4.339,2.483-10.726,6.859-10.594,6.858a87.578,87.578,0,0,0-33.924,57.966c-1.387,19.195-1.225,19.68-.827,44.423v25.4a40.52,40.52,0,0,0,40.475,40.475h1.472V389.823h-1.472a29.915,29.915,0,0,1-29.881-29.881V302.005c0-41.923,33.644-76.277,75-76.585,20.346-.158,42.466,9.46,53.811,21.933a87.819,87.819,0,0,1,22.334,53.636c1.456,22.836,0,58.953,0,58.953a29.915,29.915,0,0,1-29.881,29.881v10.594a40.52,40.52,0,0,0,40.475-40.475c0-48.452,3.663-90.871-25.335-119.051C322.427,231.112,309.876,223.182,292.745,217.711ZM184.489,302.924Z" transform="translate(0 0)"/><path class="a" d="M279.178,325.132a5.083,5.083,0,0,0,5.084-5.083v-3.493a5.083,5.083,0,1,0-10.167,0v3.493A5.083,5.083,0,0,0,279.178,325.132Zm-42.048,0a5.083,5.083,0,0,0,5.084-5.083v-3.493a5.084,5.084,0,0,0-5.084-5.084h0a5.084,5.084,0,0,0-5.084,5.084v3.493a5.083,5.083,0,0,0,5.084,5.083Zm44.655,19.285-9.556-4.57a15.9,15.9,0,0,1-28.695,0l-9.561,4.563a26.491,26.491,0,0,0,47.812,0Z" transform="translate(13.234 16.292)"/><rect class="a" width="26.726" height="10.593" transform="matrix(-0.707, -0.707, 0.707, -0.707, 225.413, 301.348)"/><rect class="a" width="26.726" height="10.593" transform="matrix(0.707, 0.707, -0.707, 0.707, 225.396, 263.558)"/><path class="a" d="M362.212,451.272A58.377,58.377,0,0,0,316.5,394.038L287.1,387.376v-8.222c24.114-9.66,42.172-32.651,45.423-60.867a18.843,18.843,0,0,0-7.23-17.045c-5.415-4.144-14.736-13.051-16.309-26.141a12.849,12.849,0,0,0-8.289-10.618l-.5-.184a12.7,12.7,0,0,0-14.478,4.122c-19.469,25.066-56.819,32.467-77.352,34.648a18.818,18.818,0,0,0-16.411,22.637,75.749,75.749,0,0,0,24.679,41.646,70.508,70.508,0,0,0,19.525,11.774v8.249l-29.4,6.662a58.378,58.378,0,0,0-45.712,57.233V487.6h201.16V451.272Zm-159.9-127.787a8.224,8.224,0,0,1,7.174-9.879c22.2-2.36,62.723-10.523,84.6-38.685a2.128,2.128,0,0,1,1.683-.818,2.213,2.213,0,0,1,.767.138l.5.184a2.308,2.308,0,0,1,1.434,1.941h0c2.036,16.949,13.649,28.132,20.389,33.29A8.2,8.2,0,0,1,322,317.074c-3.706,32.158-29.66,56.408-60.369,56.408C233.022,373.481,208.63,352.923,202.316,323.484Zm59.317,60.591a68.312,68.312,0,0,0,14.877-1.655v6.9a22.746,22.746,0,0,1-29.757,0v-6.9A68.1,68.1,0,0,0,261.633,384.075Zm-21.746,13.318a33.367,33.367,0,0,0,43.49,0l18.649,4.227v30.517H222.71V401.287Zm-30.779,6.977,3.011-.683v39.042h100.5V404.02l1.538.349a48.726,48.726,0,0,1,10.271,3.571v69.066H199.758v-69.5A48.976,48.976,0,0,1,209.107,404.37Zm-37.461,46.9a47.862,47.862,0,0,1,17.518-37.2v62.934H171.646Zm179.972,25.736h-16.6V414.86a47.863,47.863,0,0,1,16.6,36.412v25.736Z" transform="translate(9.021 13.445)"/></g></svg>